<svg width="19" height="19" viewBox="0 0 19 19" fill="none" xmlns="http://www.w3.org/2000/svg">
<path d="M9.5 0C4.24932 0 0 4.24891 0 9.5C0 14.7507 4.24891 19 9.5 19C14.7507 19 19 14.7511 19 9.5C19 4.24928 14.7511 0 9.5 0ZM9.5 17.5156C5.06973 17.5156 1.48438 13.9306 1.48438 9.5C1.48438 5.0697 5.0694 1.48438 9.5 1.48438C13.9303 1.48438 17.5156 5.0694 17.5156 9.5C17.5156 13.9303 13.9306 17.5156 9.5 17.5156Z" fill="#3D3D3D"/>
<path d="M12.7511 11.7005L10.5505 9.49988L12.7511 7.29922C13.041 7.0094 13.041 6.53948 12.7512 6.24962C12.4613 5.95976 11.9914 5.9598 11.7016 6.24962L9.50088 8.45028L7.30018 6.24962C7.0104 5.95976 6.5404 5.95976 6.25058 6.24962C5.96076 6.53948 5.96076 7.0094 6.25062 7.29922L8.45128 9.49988L6.25062 11.7005C5.96076 11.9904 5.96072 12.4603 6.25058 12.7501C6.54052 13.04 7.01043 13.0399 7.30018 12.7501L9.50088 10.5495L11.7016 12.7501C11.9913 13.04 12.4613 13.04 12.7512 12.7501C13.041 12.4603 13.041 11.9904 12.7511 11.7005Z" fill="#3D3D3D"/>
</svg>
