<svg width="323" height="111" viewBox="0 0 323 111" fill="none" xmlns="http://www.w3.org/2000/svg">
<path fill-rule="evenodd" clip-rule="evenodd" d="M210.818 15.8785H218.023L215.861 31.1038L219.346 27.5669L221.006 15.8785H228.211L226.551 27.5669L221.445 33.7256L224.71 40.5336L222.904 53.249H215.699L217.523 40.4079L215.085 36.5703L212.717 53.249H205.511L210.818 15.8785Z" fill="white"/>
<path fill-rule="evenodd" clip-rule="evenodd" d="M237.307 15.8785H241.436H245.223H248.641L243.334 53.249H236.129L240.294 23.9147L236.312 30.4086L233.068 53.249H225.863L229.452 27.9745L237.307 15.8785Z" fill="white"/>
<path d="M259.037 15.8785H251.832L246.525 53.249H253.73L259.037 15.8785Z" fill="white"/>
<path d="M218.023 60.8985H210.818L205.511 92.7364H212.717L218.023 60.8985Z" fill="white"/>
<path fill-rule="evenodd" clip-rule="evenodd" d="M262.228 15.8785H269.433L271.429 27.4299L277.174 15.8785H284.379L279.072 53.249H271.867L275.253 29.4008L270.185 37.825L270.286 36.9739L270.184 37.8236L267.508 29.4339L264.126 53.249H256.921L262.228 15.8785Z" fill="white"/>
<path fill-rule="evenodd" clip-rule="evenodd" d="M189.191 22.5417L195.169 15.7451H207.779L203.521 46.4525L197.707 53.249H184.851L189.191 22.5417ZM196.232 25.4416H199.088L196.593 42.6512H193.737L196.232 25.4416Z" fill="white"/>
<path d="M149.751 53.249L155.217 15.7922H169.185L167.953 25.776H161.118L157.226 53.249H149.751Z" fill="white"/>
<path d="M313.179 53.249H305.704L309.714 25.776H305.019L306.278 15.7922H311.171H323L321.767 25.776H317.072L313.179 53.249Z" fill="white"/>
<path fill-rule="evenodd" clip-rule="evenodd" d="M170.411 15.8618L164.871 53.249H172.489L173.586 44.7096L185.15 35.8971L187.91 15.8618H170.411ZM176.358 25.3819L175.68 30.9315L175.444 32.7587L178.584 30.9315L179.261 25.3819H176.358Z" fill="white"/>
<path fill-rule="evenodd" clip-rule="evenodd" d="M170.411 60.8985L165.6 92.7364H172.956L173.93 85.2104L185.621 77.7286L188.169 60.8985H170.411ZM176.357 69.0208L175.68 74.5704L175.502 75.9224L178.642 74.0952L179.261 69.0208H176.357Z" fill="white"/>
<path fill-rule="evenodd" clip-rule="evenodd" d="M144.932 15.8785H140.803L132.949 27.9745L129.36 53.249H136.565L138.61 38.8467H141.671L139.626 53.249H146.831L152.137 15.8785H148.72H144.932ZM142.547 32.6784L143.791 23.9145L139.808 30.4086L139.486 32.6784H142.547Z" fill="white"/>
<path fill-rule="evenodd" clip-rule="evenodd" d="M297.367 15.8785H293.238L285.383 27.9745L281.794 53.249H288.999L291.044 38.8467H294.105L292.06 53.249H299.265L304.572 15.8785H301.154H297.367ZM294.981 32.6784L296.226 23.9136L292.242 30.4086L291.92 32.6784H294.981Z" fill="white"/>
<path d="M150.4 60.9H132.937L127.547 92.7364H145.01L147.389 78.6873H140.111L139.261 83.9871H136.602L138.995 68.8081H141.736L140.882 74.1783L148.757 70.6035L150.4 60.9Z" fill="white"/>
<path d="M238.479 60.9H221.015L215.625 92.7364H233.089L235.467 78.6873H228.19L227.339 83.9871H224.68L227.074 68.8081H229.814L228.961 74.1783L236.836 70.6035L238.479 60.9Z" fill="white"/>
<path fill-rule="evenodd" clip-rule="evenodd" d="M152.881 60.9H168.538L167.57 68.8081H164.21H161.68H158.939L158.135 73.907H161.919L161.053 79.3045H157.284L156.546 83.9871H159.205H164.719L163.395 92.7364H147.491L152.881 60.9Z" fill="white"/>
<path fill-rule="evenodd" clip-rule="evenodd" d="M202.47 92.7364H184.851L190.241 60.9H208.037L205.905 73.0914L201.896 76.0424L204.734 79.7876L202.47 92.7364ZM196.316 68.8522H199.206L198.376 73.6704H195.485L196.316 68.8522ZM197.346 79.2555H194.455L193.625 84.0737H196.516L197.346 79.2555Z" fill="white"/>
<path d="M90.3948 39.7619C91.732 36.7904 93.1286 33.8189 94.436 30.8177C95.5058 28.3514 95.5652 28.2326 97.7047 29.748C100.617 31.828 103.41 34.1161 106.055 36.1961C105.817 35.7801 105.52 34.9184 104.955 34.3538C102.756 32.2441 100.676 29.8966 98.1504 28.2623C96.3081 27.0737 95.9812 25.8851 96.3972 23.8942C98.2692 23.8348 99.8441 24.7262 101.152 25.8851C104.301 28.6486 107.332 31.5309 110.423 34.3835C110.957 34.8887 111.522 35.3641 111.968 35.7801C111.819 34.0567 109.472 30.4909 105.787 27.3114C103.024 24.9342 99.9927 22.8839 97.0509 20.685C98.0018 18.7238 99.339 18.2484 101.211 19.4964C107.243 23.5079 112.592 28.2326 116.158 34.6212C117.108 36.315 117.584 38.2762 118.267 40.1482C118.683 41.2774 118.267 42.1094 117.435 42.9414C112.503 47.8443 106.738 51.5587 100.438 54.4113C100.141 54.5599 99.8441 54.6787 99.6361 55.1542C100.854 54.857 102.073 54.649 103.261 54.2924C105.193 53.6982 107.124 53.0444 109.026 52.3907C110.215 51.9747 110.779 52.4798 110.66 53.6387C110.333 56.5805 109.917 59.4925 109.501 62.4046C109.412 63.0583 109.145 63.6823 108.967 64.3361C109.085 64.3955 109.204 64.4549 109.323 64.5143C109.62 64.0686 109.977 63.6526 110.215 63.1772C111.76 59.8491 112.681 56.3725 112.354 52.6878C112.235 51.4398 112.532 50.7267 113.662 50.2512C114.196 50.0432 114.702 49.7164 115.385 49.3598C116.306 52.6878 116.128 55.9268 115.563 59.1062C114.999 62.2857 113.988 65.4058 113.186 68.5853C115.474 65.7921 116.871 62.5532 117.524 59.0765C118.089 55.9862 118.178 52.8067 118.535 49.6867C118.624 48.9735 118.03 47.9038 119.218 47.7255C120.347 47.5472 121.536 47.9335 121.863 49.1518C122.19 50.4592 122.309 51.8855 122.219 53.2524C122.041 56.0159 122.071 58.8685 121.328 61.4834C120.407 64.7223 119.159 67.9613 117.465 70.8733C114.731 75.6277 115.266 75.806 109.145 75.6871C103.261 75.598 97.5561 74.4688 91.9697 72.7454C91.7023 72.6562 91.4348 72.5968 91.1971 72.5076C91.1377 72.6562 91.0486 72.8048 90.9891 72.9236C93.5149 74.3202 96.0406 75.7168 98.5961 77.0837C100.201 77.9454 100.29 78.094 98.8636 79.0746C96.0704 81.0655 93.188 82.9375 89.9788 85.1067C91.9697 84.3638 93.6635 83.8884 95.2086 83.0861C96.8727 82.2541 98.4475 81.1844 99.963 80.0849C102.102 78.51 102.697 78.4209 105.193 79.966C103.38 82.4027 100.944 84.0667 98.4178 85.5227C95.9218 86.9787 93.3069 88.2268 90.7514 89.6531C94.1389 89.0588 97.3778 88.0188 100.32 86.2359C102.637 84.8393 104.866 83.2644 107.005 81.6004C108.164 80.6792 108.937 81.2735 109.739 81.8975C110.66 82.6107 110.036 83.2941 109.501 83.8884C105.074 88.9696 99.4876 92.1788 92.98 93.7537C90.7811 94.2886 88.4931 94.4372 86.2645 94.8829C84.3033 95.2692 82.8176 94.4966 81.4804 93.1891C78.4792 90.2177 77.2312 86.5033 77.2906 82.4324C77.35 78.3317 77.8255 74.2608 78.0632 70.1602C78.1523 68.5853 78.1226 66.9807 78.0335 65.4058C77.974 64.5441 78.2415 64.1875 79.0438 63.92C80.1729 63.5338 81.2427 63.0286 82.3124 62.4937C85.4622 60.9189 87.0371 58.3337 86.9479 54.857C86.8588 51.3507 84.8976 48.9735 81.9261 47.3689C81.5398 47.1609 81.1238 46.9232 80.7078 46.8637C78.5386 46.5666 78.1226 45.2591 78.1226 43.2682C78.1226 34.0567 77.974 24.8451 77.9146 15.6335C77.9146 13.9694 78.4792 13.6129 80.0838 13.9397C80.9455 14.118 81.8667 14.0586 82.7284 14.0586C87.3342 14.1774 87.5719 15.0095 88.6416 18.0998C90.1868 22.6462 91.524 27.2817 91.4646 32.1252C91.4348 34.2944 90.8108 36.4933 90.4245 38.6625C90.3651 38.9893 90.2463 39.2865 90.1571 39.5836C90.1571 39.6728 90.276 39.7025 90.3948 39.7619Z" fill="white"/>
<path d="M33.1225 39.7953H28.741V58.786V63.4883H33.1225H38.8262L41.6935 69.526L34.7869 76.5368L51.5881 93.1309L59.0606 85.4155L64.7744 87.4629L64.7744 94.0151V98.3967H81.5828V94.0151H69.4767V84.4139L57.9482 79.9185L51.5881 87.0731L40.9785 76.4816L47.9434 70.0312L42.7237 58.786H33.1225V44.4976H41.9404L46.7798 32.4666L39.8252 26.1946L51.0112 12.4574L37.5727 23.8016L33.8353 27.1024L40.7583 33.5124L38.2422 39.7953H33.1225Z" fill="white"/>
<path d="M64.543 27.7224H70.9614H72.566V17.0329C69.3186 17.4009 67.5031 18.4068 64.9953 19.3962L63.3345 18.2336C65.6597 17.0502 70.6135 15.1552 73.1704 14.8494L74.7649 14.587V16.6316C74.7649 20.4687 74.7649 29.8916 74.7649 29.8916H72.982C71.0208 29.8322 68.6679 29.8966 66.885 29.8966V31.7042H64.543V30.6939C64.5132 29.9213 64.543 28.8219 64.543 27.7224Z" fill="white"/>
<path d="M64.543 66.7961H70.9614H72.566V77.4856C69.3186 77.1176 67.5031 76.1117 64.9953 75.1223L63.3345 76.2849C65.6597 77.4683 70.6135 79.3633 73.1704 79.6691L74.7649 79.9316V77.887C74.7649 74.0499 74.7649 64.6269 74.7649 64.6269H72.982C71.0208 64.6863 68.6679 64.6219 66.885 64.6219V62.8143H64.543V63.8246C64.5132 64.5972 64.543 65.6966 64.543 66.7961Z" fill="white"/>
<path d="M85.4919 55.0354C85.4919 58.4823 82.7285 61.3052 79.2221 61.3943C78.5684 61.424 77.7661 61.5726 77.6769 60.5029C77.6175 59.344 78.4198 59.6114 79.0735 59.5817C81.7776 59.4926 83.9468 57.1748 83.7982 54.5599C83.6496 52.3016 81.0942 50.0433 78.7764 50.3107C78.0632 50.3701 77.6472 50.3107 77.7067 49.657C77.7661 49.2707 78.301 48.6467 78.6575 48.617C82.461 48.1712 85.5217 51.113 85.4919 55.0354Z" fill="white"/>
<path d="M98.0079 8.23313C89.3573 4.75688 79.6153 2.80333 69.3119 2.80333C33.5055 2.80333 4.47872 26.3964 4.47872 55.5C4.47872 84.6036 33.5055 108.197 69.3119 108.197C79.6152 108.197 89.3572 106.243 98.0078 102.767C88.3024 107.68 76.9564 110.503 64.8332 110.503C29.0268 110.503 0 85.8775 0 55.5C0 25.1226 29.0268 0.496765 64.8332 0.496765C76.9564 0.496765 88.3025 3.31974 98.0079 8.23313Z" fill="white"/>
<path d="M98.1133 8.31194C90.2184 4.83567 77.2253 2.80333 71.9625 2.80333C39.284 2.80333 12.7928 26.3964 12.7928 55.5C12.7928 84.6036 41.4505 103.308 74.129 103.308C83.5323 103.308 92.4233 101.355 100.318 97.8786C91.4606 102.792 81.1057 105.615 70.0415 105.615C37.363 105.615 8.70532 85.8775 8.70532 55.5C8.70532 25.1226 35.1965 0.496765 67.875 0.496765C78.9392 0.496765 89.2557 3.39853 98.1133 8.31194Z" fill="white"/>
<path fill-rule="evenodd" clip-rule="evenodd" d="M61.2023 21.5455L63.0849 20.0473C63.0849 20.0473 61.8088 19.1993 61.6008 19.0805C60.0954 19.9642 58.7797 20.9099 57.203 22.26C52.4486 26.3309 48.874 31.641 46.9426 37.5245C44.8922 43.7052 45.897 51.7467 46.0598 52.8316C46.2226 53.9165 47.1785 57.6503 47.1785 57.6503H48.348C51.6761 57.5612 55.0041 57.5017 58.3025 57.5314C59.4911 57.5314 59.7288 57.056 59.6991 56.016C59.6693 54.8571 59.6693 53.6908 59.6693 52.5245C59.6693 51.3582 59.6693 50.1919 59.6396 49.033C59.6099 48.0821 59.7585 47.369 60.5608 46.7153C61.0362 46.329 61.3928 45.6158 61.482 44.9918C61.6602 43.5358 60.7688 42.674 59.5208 42.1986C58.451 41.8123 56.6979 42.4066 56.1036 43.4169C55.4201 44.5461 55.7767 45.6158 56.4304 46.6261C56.4679 46.684 56.5065 46.7427 56.5456 46.8021C56.8476 47.2607 57.1767 47.7606 57.203 48.2604C57.2363 49.3101 57.223 50.7429 57.21 52.1291C57.1998 53.2151 57.19 54.2725 57.203 55.0948H56.0739H50.9118H49.2702C48.9731 53.9657 48.348 50.9294 48.348 49.3064C48.348 42.8447 48.8532 39.7627 50.9035 35.0678C53.3205 29.5332 56.1858 25.633 61.2023 21.5455ZM58.6131 46.1902C59.3687 46.1902 59.9813 45.5776 59.9813 44.8219C59.9813 44.0662 59.3687 43.4536 58.6131 43.4536C57.8574 43.4536 57.2448 44.0662 57.2448 44.8219C57.2448 45.5776 57.8574 46.1902 58.6131 46.1902Z" fill="white"/>
<path d="M59.2738 73.7363L59.2738 71.4575C59.2738 71.4575 56.332 69.5812 54.1389 66.9106C52.7943 65.2731 51.319 62.771 50.5136 60.9726L48.4864 60.9726C48.4864 60.9726 50.5631 65.4682 52.6604 68.0222C54.8535 70.6928 59.2738 73.7363 59.2738 73.7363Z" fill="white"/>
</svg>
