<svg width="24" height="24" viewBox="0 0 24 24" fill="none" xmlns="http://www.w3.org/2000/svg">
<path d="M10.5859 11.3035L19.2645 3L20.828 4.49588L19.2645 5.99282L22 8.61008L20.4365 10.107L17.6999 7.4887L16.1365 8.98458L18.4817 11.2284L16.9182 12.7253L14.573 10.4805L12.1493 12.7994C12.9017 13.8933 13.2034 15.2152 12.9962 16.5096C12.789 17.804 12.0875 18.9789 11.0273 19.8071C9.96723 20.6354 8.6238 21.0581 7.25682 20.9936C5.88983 20.9291 4.5964 20.3819 3.62661 19.4579C2.65474 18.5315 2.07756 17.2925 2.00727 15.9816C1.93697 14.6708 2.37858 13.3817 3.24627 12.365C4.11395 11.3484 5.34572 10.6766 6.70218 10.4805C8.05864 10.2843 9.44288 10.5776 10.5859 11.3035ZM9.88155 17.9609C10.2037 17.6694 10.4614 17.3191 10.6396 16.9307C10.8178 16.5422 10.9127 16.1235 10.9189 15.6994C10.9251 15.2752 10.8423 14.8542 10.6755 14.4611C10.5087 14.0681 10.2612 13.711 9.94768 13.4111C9.63417 13.1111 9.26099 12.8743 8.8502 12.7147C8.43941 12.5551 7.99934 12.4759 7.55601 12.4818C7.11269 12.4877 6.67509 12.5786 6.2691 12.7491C5.86311 12.9195 5.49695 13.1662 5.19228 13.4743C4.58805 14.0729 4.2537 14.8746 4.26126 15.7067C4.26882 16.5389 4.61767 17.3349 5.23269 17.9233C5.84771 18.5118 6.67967 18.8455 7.54941 18.8528C8.41914 18.86 9.25704 18.5401 9.88265 17.962L9.88155 17.9609Z" fill="#91BBA9"/>
</svg>
