<svg width="230" height="79" viewBox="0 0 230 79" fill="none" xmlns="http://www.w3.org/2000/svg">
<path fill-rule="evenodd" clip-rule="evenodd" d="M150.44 11.0977H155.55L154.016 21.8954L156.488 19.3873L157.665 11.0978H162.775L161.598 19.3873L157.976 23.7551L160.292 28.5834L159.011 37.6012H153.901L155.194 28.4942L153.466 25.7729L151.786 37.6011H146.676L150.44 11.0977Z" fill="url(#paint0_linear_128_649)"/>
<path fill-rule="evenodd" clip-rule="evenodd" d="M169.226 11.0977H174.84L174.84 11.0978H177.264L173.5 37.6012H168.39L171.344 16.7972L168.52 21.4025L166.219 37.6011H161.11L163.655 19.6763L169.226 11.0977Z" fill="url(#paint1_linear_128_649)"/>
<path d="M184.637 11.0977H179.527L175.764 37.6011H180.873L184.637 11.0977Z" fill="url(#paint2_linear_128_649)"/>
<path d="M155.55 43.0264H150.44L146.676 65.6061H151.786L155.55 43.0264Z" fill="url(#paint3_linear_128_649)"/>
<path fill-rule="evenodd" clip-rule="evenodd" d="M186.9 11.0977H192.01L193.426 19.2896L197.499 11.0978H202.609L198.846 37.6012H193.736L196.138 20.6879L192.543 26.6624L192.574 26.4025L192.543 26.6613L190.645 20.7113L188.247 37.6011H183.137L186.9 11.0977Z" fill="url(#paint4_linear_128_649)"/>
<path fill-rule="evenodd" clip-rule="evenodd" d="M135.102 15.8231L139.341 11.0029H148.285L145.265 32.7808L141.142 37.601H132.024L135.102 15.8231ZM140.095 17.8797H142.12L140.351 30.0848H138.325L140.095 17.8797Z" fill="url(#paint5_linear_128_649)"/>
<path d="M107.13 37.6008L111.007 11.0361H120.913L120.039 18.1167H115.192L112.431 37.6008H107.13Z" fill="url(#paint6_linear_128_649)"/>
<path d="M223.035 37.6008H217.734L220.577 18.1167H217.248L218.141 11.0361H221.611H230L229.126 18.1167H225.796L223.035 37.6008Z" fill="url(#paint7_linear_128_649)"/>
<path fill-rule="evenodd" clip-rule="evenodd" d="M121.782 11.0854L117.854 37.6007H123.256L124.034 31.5445L132.236 25.2946L134.193 11.0854H121.782ZM126 17.8372L125.52 21.773L125.352 23.0688L127.579 21.773L128.059 17.8372H126Z" fill="url(#paint8_linear_128_649)"/>
<path fill-rule="evenodd" clip-rule="evenodd" d="M121.782 43.0264L118.37 65.6061H123.587L124.279 60.2686L132.569 54.9624L134.377 43.0264H121.782ZM126 48.7868L125.52 52.7226L125.393 53.6814L127.62 52.3856L128.059 48.7868H126Z" fill="url(#paint9_linear_128_649)"/>
<path fill-rule="evenodd" clip-rule="evenodd" d="M106.399 11.0977H100.785L95.2143 19.6763L92.6688 37.6011H97.7787L99.2291 27.3873H101.4L99.9496 37.6012H105.059L108.823 11.0978H106.399L106.399 11.0977ZM102.021 23.0127L102.904 16.7967L100.079 21.4025L99.8503 23.0127H102.021Z" fill="url(#paint10_linear_128_649)"/>
<path fill-rule="evenodd" clip-rule="evenodd" d="M214.507 11.0977H208.893L203.322 19.6763L200.776 37.6011H205.886L207.337 27.3873H209.507L208.057 37.6012H213.167L216.931 11.0978H214.507L214.507 11.0977ZM210.129 23.0127L211.011 16.7971L208.187 21.4025L207.958 23.0127H210.129Z" fill="url(#paint11_linear_128_649)"/>
<path d="M107.591 43.0273H95.2059L91.3833 65.606H103.768L105.455 55.6423H100.294L99.691 59.4009H97.8052L99.5026 48.6358H101.446L100.841 52.4445L106.426 49.9092L107.591 43.0273Z" fill="url(#paint12_linear_128_649)"/>
<path d="M170.057 43.0273H157.671L153.849 65.606H166.234L167.921 55.6423H162.76L162.156 59.4009H160.271L161.968 48.6358H163.912L163.306 52.4445L168.891 49.9092L170.057 43.0273Z" fill="url(#paint13_linear_128_649)"/>
<path fill-rule="evenodd" clip-rule="evenodd" d="M109.35 43.0273H120.454L119.768 48.6358H117.385H115.591H113.647L113.077 52.2524H115.76L115.146 56.0803H112.473L111.95 59.4009H113.835H117.746L116.807 65.606H105.528L109.35 43.0273Z" fill="url(#paint14_linear_128_649)"/>
<path fill-rule="evenodd" clip-rule="evenodd" d="M144.519 65.606H132.024L135.847 43.0273H148.467L146.956 51.6736L144.112 53.7665L146.125 56.4226L144.519 65.606ZM140.154 48.6673H142.205L141.616 52.0843H139.566L140.154 48.6673ZM140.885 56.0452H138.835L138.246 59.4623H140.296L140.885 56.0452Z" fill="url(#paint15_linear_128_649)"/>
<path d="M65.0346 28.0362C65.9829 25.9288 66.9734 23.8214 67.9006 21.693C68.6593 19.9438 68.7014 19.8595 70.2188 20.9343C72.284 22.4095 74.265 24.0322 76.1405 25.5073C75.9719 25.2123 75.7612 24.6012 75.3608 24.2008C73.8013 22.7045 72.3261 21.0397 70.5349 19.8806C69.2283 19.0376 68.9965 18.1947 69.2915 16.7827C70.6192 16.7406 71.7361 17.3728 72.6633 18.1947C74.8972 20.1546 77.0467 22.1987 79.2384 24.2218C79.6178 24.5801 80.0182 24.9173 80.3343 25.2123C80.2289 23.99 78.564 21.4611 75.9509 19.2062C73.991 17.5203 71.8415 16.0662 69.7551 14.5067C70.4295 13.1158 71.3778 12.7787 72.7055 13.6638C76.9835 16.5088 80.7768 19.8595 83.3057 24.3904C83.9801 25.5916 84.3172 26.9825 84.8019 28.3102C85.097 29.111 84.802 29.7011 84.2119 30.2911C80.7136 33.7683 76.6252 36.4026 72.1576 38.4257C71.9468 38.5311 71.7361 38.6154 71.5886 38.9525C72.4526 38.7418 73.3166 38.5943 74.1596 38.3414C75.5294 37.9199 76.8992 37.4563 78.2479 36.9927C79.0909 36.6976 79.4913 37.0559 79.407 37.8778C79.1752 39.9641 78.8802 42.0293 78.5851 44.0946C78.5219 44.5582 78.3322 45.0008 78.2058 45.4644C78.2901 45.5066 78.3744 45.5487 78.4587 45.5909C78.6694 45.2747 78.9223 44.9797 79.0909 44.6425C80.1867 42.2822 80.84 39.8166 80.6082 37.2034C80.5239 36.3183 80.7347 35.8125 81.5355 35.4753C81.9148 35.3278 82.2731 35.096 82.7578 34.8431C83.4111 37.2034 83.2846 39.5005 82.8842 41.7554C82.4838 44.0103 81.7673 46.2231 81.1983 48.478C82.821 46.497 83.8115 44.2 84.2751 41.7343C84.6755 39.5426 84.7387 37.2877 84.9916 35.0749C85.0548 34.5692 84.6334 33.8105 85.4763 33.684C86.2771 33.5576 87.1201 33.8316 87.3519 34.6956C87.5837 35.6229 87.668 36.6344 87.6048 37.6038C87.4783 39.5637 87.4994 41.5868 86.9726 43.4413C86.3193 45.7384 85.4342 48.0354 84.2329 50.1007C82.2941 53.4725 82.6735 53.599 78.3322 53.5147C74.1596 53.4514 70.1134 52.6506 66.1515 51.4283C65.9618 51.3651 65.7721 51.323 65.6036 51.2598C65.5614 51.3651 65.4982 51.4705 65.456 51.5548C67.2473 52.5453 69.0386 53.5357 70.851 54.5051C71.989 55.1163 72.0522 55.2217 71.0406 55.9171C69.0597 57.3291 67.0155 58.6567 64.7395 60.1951C66.1515 59.6683 67.3527 59.3311 68.4485 58.7621C69.6287 58.172 70.7456 57.4133 71.8204 56.6336C73.3377 55.5167 73.7592 55.4535 75.5294 56.5493C74.2439 58.2774 72.5158 59.4575 70.7245 60.4902C68.9543 61.5228 67.0998 62.4079 65.2874 63.4194C67.6899 62.998 69.9869 62.2604 72.0733 60.9959C73.717 60.0055 75.2976 58.8885 76.8149 57.7084C77.6368 57.0551 78.1847 57.4766 78.7537 57.9191C79.407 58.4249 78.9645 58.9096 78.5851 59.3311C75.4451 62.9347 71.4832 65.2107 66.868 66.3276C65.3085 66.707 63.6858 66.8123 62.1053 67.1285C60.7144 67.4024 59.6607 66.8545 58.7124 65.9272C56.5839 63.8198 55.6988 61.1856 55.7409 58.2985C55.7831 55.3902 56.1203 52.5031 56.2889 49.5949C56.3521 48.478 56.331 47.34 56.2678 46.2231C56.2256 45.6119 56.4153 45.359 56.9843 45.1694C57.7851 44.8954 58.5438 44.5372 59.3024 44.1578C61.5363 43.0409 62.6532 41.2075 62.59 38.7418C62.5268 36.2551 61.1359 34.5692 59.0285 33.4312C58.7545 33.2836 58.4595 33.1151 58.1644 33.0729C56.626 32.8622 56.331 31.9349 56.331 30.523C56.331 23.99 56.2256 17.4571 56.1835 10.9242C56.1835 9.74401 56.5839 9.49112 57.7219 9.72294C58.333 9.84938 58.9863 9.80723 59.5975 9.80723C62.8639 9.89153 63.0325 10.4816 63.7912 12.6733C64.887 15.8976 65.8354 19.1852 65.7932 22.6202C65.7721 24.1586 65.3296 25.7181 65.0556 27.2565C65.0135 27.4883 64.9292 27.699 64.866 27.9098C64.866 27.973 64.9503 27.9941 65.0346 28.0362Z" fill="url(#paint16_linear_128_649)"/>
<path d="M24.4166 28.0601H21.3092V41.5284V44.8633H24.4166H28.4617L30.4952 49.1454L25.597 54.1174L37.5125 65.8861L42.8121 60.4143L46.8644 61.8663L46.8644 66.5132V69.6207H58.785V66.5132H50.1993V59.704L42.0232 56.5158L37.5125 61.5899L29.9882 54.0783L34.9277 49.5037L31.2259 41.5284H24.4166V31.395H30.6703L34.1025 22.8625L29.1702 18.4144L37.1034 8.67188L27.5727 16.7173L24.9221 19.0582L29.832 23.6042L28.0476 28.0601H24.4166Z" fill="#636363"/>
<path d="M46.7001 19.4974H51.2521H52.3901V11.9163C50.087 12.1773 48.7994 12.8907 47.0209 13.5924L45.843 12.7678C47.4921 11.9286 51.0054 10.5847 52.8187 10.3678L53.9495 10.1816V11.6317C53.9495 14.353 53.9495 21.0358 53.9495 21.0358H52.6851C51.2942 20.9937 49.6255 21.0394 48.3611 21.0394V22.3213H46.7001V21.6048C46.679 21.0569 46.7001 20.2772 46.7001 19.4974Z" fill="url(#paint17_linear_128_649)"/>
<path d="M46.7001 47.2091H51.2521H52.3901V54.7902C50.087 54.5292 48.7994 53.8158 47.0209 53.1142L45.843 53.9387C47.4921 54.7779 51.0054 56.1219 52.8187 56.3388L53.9495 56.5249V55.0749C53.9495 52.3536 53.9495 45.6707 53.9495 45.6707H52.6851C51.2942 45.7129 49.6255 45.6672 48.3611 45.6672V44.3852H46.7001V45.1017C46.679 45.6496 46.7001 46.4294 46.7001 47.2091Z" fill="url(#paint18_linear_128_649)"/>
<path d="M61.5572 38.8683C61.5572 41.3129 59.5974 43.315 57.1106 43.3782C56.647 43.3993 56.078 43.5046 56.0148 42.746C55.9726 41.9241 56.5416 42.1137 57.0053 42.0927C58.923 42.0294 60.4614 40.3857 60.356 38.5312C60.2507 36.9295 58.4383 35.3279 56.7945 35.5176C56.2887 35.5597 55.9937 35.5176 56.0359 35.054C56.078 34.78 56.4573 34.3374 56.7102 34.3164C59.4077 34.0003 61.5783 36.0866 61.5572 38.8683Z" fill="black" fill-opacity="0.34"/>
<path d="M70.4339 5.67614C64.2988 3.21076 57.3897 1.82528 50.0825 1.82528C24.6883 1.82528 4.10225 18.5577 4.10225 39.1982C4.10225 59.8387 24.6883 76.5711 50.0825 76.5711C57.3897 76.5711 64.2987 75.1856 70.4338 72.7203C63.5506 76.2048 55.504 78.2069 46.9061 78.2069C21.5119 78.2069 0.925903 60.7421 0.925903 39.1982C0.925903 17.6543 21.5119 0.189453 46.9061 0.189453C55.504 0.189453 63.5507 2.19153 70.4339 5.67614Z" fill="url(#paint19_linear_128_649)"/>
<path d="M70.5087 5.73154C64.9095 3.26615 55.6948 1.8248 51.9623 1.8248C28.7865 1.8248 9.99872 18.5572 9.99872 39.1977C9.99872 59.8382 30.323 73.1038 53.4988 73.1038C60.1677 73.1038 66.4733 71.7183 72.0724 69.2529C65.7906 72.7375 58.4468 74.7396 50.6 74.7396C27.4241 74.7396 7.09985 60.7416 7.09985 39.1977C7.09985 17.6538 25.8876 0.188965 49.0635 0.188965C56.9103 0.188965 64.2268 2.24692 70.5087 5.73154Z" fill="url(#paint20_linear_128_649)"/>
<path fill-rule="evenodd" clip-rule="evenodd" d="M44.3312 15.1168L45.6664 14.0543C45.6664 14.0543 44.7614 13.4529 44.6138 13.3687C43.5462 13.9954 42.6131 14.6661 41.4949 15.6236C38.123 18.5107 35.5879 22.2766 34.2181 26.4493C32.764 30.8327 33.4766 36.5358 33.5921 37.3052C33.7075 38.0746 34.3854 40.7227 34.3854 40.7227H35.2148C37.5751 40.6595 39.9354 40.6173 42.2746 40.6384C43.1176 40.6384 43.2862 40.3012 43.2651 39.5636C43.244 38.7417 43.244 37.9146 43.244 37.0874C43.244 36.2603 43.244 35.4331 43.2229 34.6112C43.2019 33.9369 43.3072 33.4311 43.8762 32.9675C44.2134 32.6935 44.4663 32.1877 44.5295 31.7452C44.656 30.7125 44.0238 30.1014 43.1387 29.7642C42.38 29.4902 41.1366 29.9117 40.7151 30.6282C40.2304 31.4291 40.4833 32.1877 40.947 32.9042C40.9735 32.9453 41.0009 32.9869 41.0287 33.029C41.2428 33.3543 41.4762 33.7088 41.4949 34.0633C41.5185 34.8078 41.509 35.8239 41.4998 36.807C41.4926 37.5772 41.4856 38.3271 41.4949 38.9103H40.6941H37.0331H35.8689C35.6582 38.1095 35.2148 35.9561 35.2148 34.8051C35.2148 30.2224 35.5731 28.0367 37.0272 24.707C38.7414 20.7818 40.7735 18.0157 44.3312 15.1168ZM42.4949 32.5951C43.0308 32.5951 43.4653 32.1606 43.4653 31.6247C43.4653 31.0888 43.0308 30.6543 42.4949 30.6543C41.959 30.6543 41.5245 31.0888 41.5245 31.6247C41.5245 32.1606 41.959 32.5951 42.4949 32.5951Z" fill="url(#paint21_linear_128_649)"/>
<path d="M42.9634 52.131L42.9634 50.5148C42.9634 50.5148 40.8771 49.1841 39.3217 47.2901C38.3681 46.1288 37.3218 44.3543 36.7506 43.0788L35.3129 43.0788C35.3129 43.0788 36.7857 46.2671 38.2732 48.0784C39.8285 49.9725 42.9634 52.131 42.9634 52.131Z" fill="url(#paint22_linear_128_649)"/>
<defs>
<linearGradient id="paint0_linear_128_649" x1="154.726" y1="11.0977" x2="154.726" y2="37.6011" gradientUnits="userSpaceOnUse">
<stop stop-color="#3F85C2"/>
<stop offset="1" stop-color="#52A555"/>
</linearGradient>
<linearGradient id="paint1_linear_128_649" x1="169.187" y1="11.0977" x2="169.187" y2="37.6011" gradientUnits="userSpaceOnUse">
<stop stop-color="#3F85C2"/>
<stop offset="1" stop-color="#52A555"/>
</linearGradient>
<linearGradient id="paint2_linear_128_649" x1="180.2" y1="11.0977" x2="180.2" y2="37.6011" gradientUnits="userSpaceOnUse">
<stop stop-color="#3F85C2"/>
<stop offset="1" stop-color="#52A555"/>
</linearGradient>
<linearGradient id="paint3_linear_128_649" x1="151.113" y1="43.0264" x2="151.113" y2="65.6061" gradientUnits="userSpaceOnUse">
<stop stop-color="#282828"/>
<stop offset="0.515625" stop-color="#767676"/>
<stop offset="1" stop-color="#333333"/>
</linearGradient>
<linearGradient id="paint4_linear_128_649" x1="192.873" y1="11.0977" x2="192.873" y2="37.6011" gradientUnits="userSpaceOnUse">
<stop stop-color="#3F85C2"/>
<stop offset="1" stop-color="#52A555"/>
</linearGradient>
<linearGradient id="paint5_linear_128_649" x1="140.154" y1="11.0029" x2="140.154" y2="37.601" gradientUnits="userSpaceOnUse">
<stop stop-color="#3F85C2"/>
<stop offset="1" stop-color="#52A555"/>
</linearGradient>
<linearGradient id="paint6_linear_128_649" x1="114.022" y1="11.0361" x2="114.022" y2="37.6008" gradientUnits="userSpaceOnUse">
<stop stop-color="#3F85C2"/>
<stop offset="1" stop-color="#52A555"/>
</linearGradient>
<linearGradient id="paint7_linear_128_649" x1="223.624" y1="11.0361" x2="223.624" y2="37.6008" gradientUnits="userSpaceOnUse">
<stop stop-color="#3F85C2"/>
<stop offset="1" stop-color="#52A555"/>
</linearGradient>
<linearGradient id="paint8_linear_128_649" x1="126.023" y1="11.0854" x2="126.023" y2="37.6007" gradientUnits="userSpaceOnUse">
<stop stop-color="#3F85C2"/>
<stop offset="1" stop-color="#52A555"/>
</linearGradient>
<linearGradient id="paint9_linear_128_649" x1="126.373" y1="43.0264" x2="126.373" y2="65.6061" gradientUnits="userSpaceOnUse">
<stop stop-color="#282828"/>
<stop offset="0.515625" stop-color="#767676"/>
<stop offset="1" stop-color="#333333"/>
</linearGradient>
<linearGradient id="paint10_linear_128_649" x1="100.746" y1="11.0977" x2="100.746" y2="37.6011" gradientUnits="userSpaceOnUse">
<stop stop-color="#3F85C2"/>
<stop offset="1" stop-color="#52A555"/>
</linearGradient>
<linearGradient id="paint11_linear_128_649" x1="208.854" y1="11.0977" x2="208.854" y2="37.6011" gradientUnits="userSpaceOnUse">
<stop stop-color="#3F85C2"/>
<stop offset="1" stop-color="#52A555"/>
</linearGradient>
<linearGradient id="paint12_linear_128_649" x1="99.4872" y1="43.0273" x2="99.4872" y2="65.606" gradientUnits="userSpaceOnUse">
<stop stop-color="#282828"/>
<stop offset="0.515625" stop-color="#767676"/>
<stop offset="1" stop-color="#333333"/>
</linearGradient>
<linearGradient id="paint13_linear_128_649" x1="161.953" y1="43.0273" x2="161.953" y2="65.606" gradientUnits="userSpaceOnUse">
<stop stop-color="#282828"/>
<stop offset="0.515625" stop-color="#767676"/>
<stop offset="1" stop-color="#333333"/>
</linearGradient>
<linearGradient id="paint14_linear_128_649" x1="112.991" y1="43.0273" x2="112.991" y2="65.606" gradientUnits="userSpaceOnUse">
<stop stop-color="#282828"/>
<stop offset="0.515625" stop-color="#767676"/>
<stop offset="1" stop-color="#333333"/>
</linearGradient>
<linearGradient id="paint15_linear_128_649" x1="140.246" y1="43.0273" x2="140.246" y2="65.606" gradientUnits="userSpaceOnUse">
<stop stop-color="#282828"/>
<stop offset="0.515625" stop-color="#767676"/>
<stop offset="1" stop-color="#333333"/>
</linearGradient>
<linearGradient id="paint16_linear_128_649" x1="71.4876" y1="9.64502" x2="71.4876" y2="67.1992" gradientUnits="userSpaceOnUse">
<stop stop-color="#767676"/>
<stop offset="0.505208" stop-color="#D5D5D5"/>
<stop offset="1" stop-color="#767676"/>
</linearGradient>
<linearGradient id="paint17_linear_128_649" x1="50.3385" y1="10.2111" x2="50.3385" y2="22.2669" gradientUnits="userSpaceOnUse">
<stop stop-color="#767676"/>
<stop offset="0.505208" stop-color="#D5D5D5"/>
<stop offset="1" stop-color="#767676"/>
</linearGradient>
<linearGradient id="paint18_linear_128_649" x1="50.3385" y1="56.4954" x2="50.3385" y2="44.4396" gradientUnits="userSpaceOnUse">
<stop stop-color="#767676"/>
<stop offset="0.505208" stop-color="#D5D5D5"/>
<stop offset="1" stop-color="#767676"/>
</linearGradient>
<linearGradient id="paint19_linear_128_649" x1="35.6799" y1="0.189453" x2="35.6799" y2="78.2069" gradientUnits="userSpaceOnUse">
<stop stop-color="#282828"/>
<stop offset="0.744792" stop-color="#333333"/>
<stop offset="1" stop-color="#767676"/>
</linearGradient>
<linearGradient id="paint20_linear_128_649" x1="39.5861" y1="0.188965" x2="39.5861" y2="74.7396" gradientUnits="userSpaceOnUse">
<stop stop-color="#3F85C2"/>
<stop offset="1" stop-color="#52A555"/>
</linearGradient>
<linearGradient id="paint21_linear_128_649" x1="39.4158" y1="13.3687" x2="39.4158" y2="40.7227" gradientUnits="userSpaceOnUse">
<stop stop-color="#767676"/>
<stop offset="0.505208" stop-color="#D5D5D5"/>
<stop offset="1" stop-color="#767676"/>
</linearGradient>
<linearGradient id="paint22_linear_128_649" x1="35.6295" y1="42.8112" x2="43.28" y2="51.8634" gradientUnits="userSpaceOnUse">
<stop stop-color="#767676"/>
<stop offset="0.505208" stop-color="#D5D5D5"/>
<stop offset="1" stop-color="#767676"/>
</linearGradient>
</defs>
</svg>
